<svg xmlns="http://www.w3.org/2000/svg" xmlns:xlink="http://www.w3.org/1999/xlink" preserveAspectRatio="xMidYMid meet" version="1.0" viewBox="61.9 66.7 370.1 361.7" zoomAndPan="magnify" style="fill: rgb(0, 0, 0);" original_string_length="5131"><g><g><g><g><g><g><g clip-rule="evenodd" fill-rule="evenodd"><g id="__id0_svypcj0uxb"><path d="M424.846 382.185L394.719 390.842 388.52 421.058 349.649 384.734 349.351 381.551 345.967 345.287 383.025 345.818 385.975 345.861z" style="fill: rgb(255, 228, 94);"/></g><g id="__id1_svypcj0uxb"><path d="M288.08,290.39 c10.549-11.12,17.183-25.984,17.702-42.392c0.022-0.691,0.034-1.385,0.034-2.081c0-35.695-28.939-64.632-64.634-64.632 s-64.634,28.936-64.634,64.632c0,35.698,28.939,64.634,64.634,64.634C259.645,310.552,276.302,302.809,288.08,290.39 L288.08,290.39z M329.233,329.415c-22.113,23.313-53.384,37.851-88.053,37.851c-67.017,0-121.347-54.33-121.347-121.348 c0-67.018,54.33-121.347,121.347-121.347c67.018,0,121.348,54.33,121.348,121.347 C362.528,278.267,349.87,307.662,329.233,329.415z" style="fill: rgb(254, 240, 213);"/></g><g id="__id2_svypcj0uxb"><path d="M288.08,290.39 c-11.778,12.418-28.435,20.161-46.899,20.161c-35.695,0-64.634-28.937-64.634-64.634c0-35.695,28.939-64.632,64.634-64.632 c35.695,0,64.635,28.936,64.635,64.632c0,0.696-0.012,1.39-0.034,2.081C305.262,264.406,298.628,279.27,288.08,290.39z" style="fill: rgb(235, 100, 41);"/></g><g id="__id3_svypcj0uxb"><path d="M329.233,329.415 c20.637-21.753,33.296-51.148,33.296-83.497c0-67.018-54.33-121.347-121.348-121.347 c-67.018,0-121.348,54.33-121.348,121.347c0,67.018,54.33,121.348,121.348,121.348 C275.848,367.265,307.12,352.727,329.233,329.415L329.233,329.415z M345.967,345.287l3.384,36.264 c-29.661,23.685-67.262,37.846-108.171,37.846c-95.81,0-173.479-77.669-173.479-173.479 c0-95.81,77.67-173.479,173.479-173.479s173.479,77.67,173.479,173.479c0,37.196-11.706,71.655-31.634,99.9L345.967,345.287z" style="fill: rgb(235, 100, 41);"/></g></g></g></g></g><g id="__id4_svypcj0uxb"><path clip-rule="evenodd" d="M428.779,377.975l-37.1-34.668 c18.826-29.011,28.741-62.531,28.741-97.389c0-24.195-4.74-47.669-14.088-69.77c-9.028-21.345-21.951-40.513-38.41-56.972 c-16.459-16.459-35.628-29.382-56.971-38.41c-22.102-9.348-45.576-14.088-69.77-14.088c-24.194,0-47.668,4.74-69.77,14.088 c-21.345,9.028-40.513,21.951-56.972,38.41c-16.459,16.459-29.382,35.628-38.41,56.972c-9.348,22.101-14.088,45.575-14.088,69.77 c0,24.195,4.74,47.668,14.088,69.77c9.028,21.344,21.951,40.513,38.41,56.972c16.459,16.459,35.628,29.382,56.972,38.41 c22.101,9.348,45.575,14.088,69.77,14.088c20.673,0,40.94-3.491,60.239-10.376c16.412-5.856,31.806-14.045,45.855-24.382 l37.313,34.867c3.108,3.082,8.829,1.245,9.576-3.051l5.499-26.8l26.776-7.696C430.643,386.652,432.04,380.837,428.779,377.975 L428.779,377.975z M241.18,413.637c-92.481,0-167.719-75.239-167.719-167.719c0-92.48,75.238-167.719,167.719-167.719 S408.9,153.437,408.9,245.918c0,33.817-9.971,66.283-28.863,94.096l-31.737-0.455l-11.013-10.444 c8.745-10.079,15.795-21.386,21.012-33.719c6.63-15.674,9.991-32.321,9.991-49.478c0-17.157-3.362-33.804-9.991-49.478 c-6.402-15.137-15.566-28.729-27.238-40.401c-11.671-11.672-25.264-20.836-40.401-27.238c-15.674-6.63-32.321-9.991-49.478-9.991 c-17.157,0-33.804,3.362-49.478,9.991c-15.136,6.402-28.73,15.566-40.401,27.238c-11.672,11.671-20.836,25.264-27.238,40.401 c-6.63,15.674-9.992,32.321-9.992,49.478c0,17.157,3.362,33.804,9.991,49.478c6.402,15.137,15.566,28.729,27.238,40.401 c11.671,11.672,25.264,20.835,40.401,27.238c15.674,6.63,32.321,9.991,49.478,9.991c17.157,0,33.804-3.361,49.478-9.991 c14.405-6.093,27.411-14.689,38.694-25.566l11.08,10.507l2.891,30.979C313.834,401.655,278.586,413.637,241.18,413.637 L241.18,413.637z M296.057,290.018c10.026-12.408,15.533-27.961,15.517-44.1c0-18.803-7.322-36.48-20.618-49.776 c-13.296-13.296-30.973-20.618-49.776-20.618s-36.48,7.322-49.776,20.618c-13.296,13.296-20.618,30.973-20.618,49.776 c0,18.803,7.322,36.48,20.618,49.776c13.296,13.296,30.973,20.618,49.776,20.618c17.457,0,34.015-6.353,46.942-17.941 l32.823,31.125c-20.759,19.821-48.865,32.009-79.765,32.009c-63.735,0-115.587-51.853-115.587-115.588 c0-63.735,51.852-115.587,115.587-115.587s115.587,51.852,115.587,115.587c0,28.7-10.515,54.989-27.894,75.22L296.057,290.018 L296.057,290.018z M245.144,241.739c-2.308-2.189-5.954-2.092-8.144,0.216c-2.189,2.309-2.092,5.954,0.216,8.144l42.591,40.388 c-10.323,8.936-23.816,14.305-38.627,14.305c-32.462,0-58.873-26.41-58.873-58.873c0-32.462,26.41-58.873,58.873-58.873 s58.873,26.41,58.873,58.873c0.03,13.495-4.592,26.319-12.317,36.21L245.144,241.739L245.144,241.739z M393.129,385.307 c-2.06,0.592-3.621,2.279-4.052,4.378l-4.135,20.146l-29.763-27.812l-2.881-30.882l31.368,0.45l29.822,27.867L393.129,385.307z" fill-rule="evenodd" style="fill: rgb(51, 51, 51);"/></g></g></g></g></svg>